<svg width="24.000000" height="24.000000" viewBox="0 0 24 24" fill="none" xmlns="http://www.w3.org/2000/svg" xmlns:xlink="http://www.w3.org/1999/xlink">
	<desc>
			Created with Pixso.
	</desc>
	<defs>
		<clipPath id="clip676_6956">
			<rect id="facebook-square 1" width="24.000000" height="24.000000" fill="white" fill-opacity="0"/>
		</clipPath>
	</defs>
	<rect id="facebook-square 1" width="24.000000" height="24.000000" fill="#FFFFFF" fill-opacity="0"/>
	<g clip-path="url(#clip676_6956)">
		<path id="Vector" d="M6 4C5.46 4 4.96 4.21 4.58 4.58C4.21 4.96 4 5.46 4 6L4 18C4 18.53 4.21 19.03 4.58 19.41C4.96 19.78 5.46 20 6 20L18 20C18.53 20 19.03 19.78 19.41 19.41C19.78 19.03 20 18.53 20 18L20 6C20 5.46 19.78 4.96 19.41 4.58C19.03 4.21 18.53 4 18 4L6 4ZM6 2L18 2C19.06 2 20.07 2.42 20.82 3.17C21.57 3.92 22 4.93 22 6L22 18C22 19.06 21.57 20.07 20.82 20.82C20.07 21.57 19.06 22 18 22L6 22C4.93 22 3.92 21.57 3.17 20.82C2.42 20.07 2 19.06 2 18L2 6C2 4.93 2.42 3.92 3.17 3.17C3.92 2.42 4.93 2 6 2L6 2Z" fill="#000000" fill-opacity="1.000000" fill-rule="nonzero"/>
		<path id="Vector" d="M15.13 7.07L7.97 9.46C7.38 9.65 7 10.18 7 10.8C7 11.42 7.38 11.95 7.97 12.15L10.87 13.12L11.84 16.03C12.04 16.61 12.57 17 13.19 17C13.81 17 14.34 16.61 14.53 16.02L16.92 8.86C17.09 8.35 16.96 7.79 16.58 7.41C16.2 7.03 15.64 6.9 15.13 7.07ZM13.19 14.79L12.19 11.8L9.2 10.8L15.18 8.81L13.19 14.79Z" fill="#000000" fill-opacity="1.000000" fill-rule="nonzero"/>
	</g>
</svg>
