<svg width="24.000000" height="24.000000" viewBox="0 0 24 24" fill="none" xmlns="http://www.w3.org/2000/svg" xmlns:xlink="http://www.w3.org/1999/xlink">
	<desc>
			Created with Pixso.
	</desc>
	<defs>
		<clipPath id="clip676_6968">
			<rect id="viber-square 1" width="24.000000" height="24.000000" fill="white" fill-opacity="0"/>
		</clipPath>
	</defs>
	<rect id="viber-square 1" width="24.000000" height="24.000000" fill="#FFFFFF" fill-opacity="0"/>
	<g clip-path="url(#clip676_6968)">
		<path id="Vector" d="M15.64 11.4C15.65 9.91 14.42 8.54 12.9 8.35L12.79 8.33C12.72 8.32 12.64 8.31 12.56 8.31C12.25 8.31 12.17 8.54 12.15 8.67C12.13 8.73 12.13 8.78 12.14 8.84C12.15 8.9 12.17 8.95 12.21 9C12.31 9.14 12.49 9.17 12.64 9.19C12.68 9.2 12.72 9.2 12.75 9.21C14.12 9.53 14.59 10.02 14.81 11.43C14.82 11.46 14.82 11.5 14.82 11.55C14.83 11.71 14.85 12.06 15.22 12.06C15.25 12.06 15.28 12.06 15.31 12.06C15.65 12 15.64 11.68 15.64 11.53C15.63 11.49 15.63 11.45 15.64 11.42C15.64 11.41 15.64 11.41 15.64 11.4L15.64 11.4Z" fill="#000000" fill-opacity="1.000000" fill-rule="nonzero"/>
		<path id="Vector" d="M12.48 7.8C12.52 7.81 12.56 7.81 12.59 7.81C14.84 8.17 15.87 9.27 16.16 11.61C16.16 11.65 16.16 11.7 16.16 11.75C16.17 11.94 16.17 12.32 16.57 12.32L16.58 12.32C16.64 12.33 16.69 12.32 16.74 12.3C16.79 12.28 16.84 12.25 16.88 12.21C17 12.08 16.99 11.88 16.98 11.72C16.98 11.68 16.98 11.64 16.98 11.61C17.01 9.22 15 7.04 12.68 6.96L12.66 6.97C12.65 6.97 12.64 6.97 12.63 6.97C12.61 6.97 12.58 6.97 12.55 6.96C12.51 6.96 12.47 6.96 12.43 6.96C12.06 6.96 11.99 7.23 11.98 7.39C11.96 7.76 12.31 7.79 12.48 7.8ZM16.05 14.64C16 14.6 15.96 14.56 15.91 14.52C15.66 14.32 15.4 14.13 15.15 13.95C15.09 13.91 15.04 13.87 14.99 13.84C14.66 13.6 14.37 13.49 14.1 13.49C13.73 13.49 13.41 13.7 13.14 14.12C13.02 14.3 12.88 14.39 12.7 14.39C12.58 14.39 12.46 14.35 12.35 14.3C11.3 13.81 10.56 13.06 10.13 12.07C9.92 11.59 9.99 11.28 10.35 11.02C10.56 10.88 10.94 10.61 10.92 10.09C10.89 9.51 9.64 7.75 9.11 7.55C8.88 7.46 8.64 7.46 8.41 7.55C7.81 7.76 7.37 8.13 7.15 8.61C6.94 9.09 6.95 9.64 7.18 10.21C7.84 11.88 8.76 13.33 9.93 14.53C11.07 15.7 12.47 16.66 14.09 17.39C14.24 17.45 14.39 17.49 14.51 17.51L14.6 17.54C14.61 17.54 14.63 17.54 14.64 17.54L14.65 17.54C15.42 17.54 16.33 16.82 16.62 16C16.86 15.28 16.41 14.92 16.05 14.64L16.05 14.64ZM12.81 9.7C12.68 9.71 12.41 9.71 12.31 10C12.27 10.13 12.28 10.25 12.33 10.35C12.41 10.49 12.57 10.53 12.71 10.55C13.22 10.64 13.48 10.93 13.54 11.47C13.56 11.73 13.73 11.9 13.94 11.9C13.95 11.9 13.97 11.9 13.99 11.9C14.24 11.87 14.36 11.67 14.35 11.33C14.36 10.96 14.17 10.54 13.86 10.21C13.54 9.88 13.16 9.7 12.81 9.7Z" fill="#000000" fill-opacity="1.000000" fill-rule="nonzero"/>
		<path id="Vector" d="M6 4C5.46 4 4.96 4.21 4.58 4.58C4.21 4.96 4 5.46 4 6L4 18C4 18.53 4.21 19.03 4.58 19.41C4.96 19.78 5.46 20 6 20L18 20C18.53 20 19.03 19.78 19.41 19.41C19.78 19.03 20 18.53 20 18L20 6C20 5.46 19.78 4.96 19.41 4.58C19.03 4.21 18.53 4 18 4L6 4ZM6 2L18 2C19.06 2 20.07 2.42 20.82 3.17C21.57 3.92 22 4.93 22 6L22 18C22 19.06 21.57 20.07 20.82 20.82C20.07 21.57 19.06 22 18 22L6 22C4.93 22 3.92 21.57 3.17 20.82C2.42 20.07 2 19.06 2 18L2 6C2 4.93 2.42 3.92 3.17 3.17C3.92 2.42 4.93 2 6 2L6 2Z" fill="#000000" fill-opacity="1.000000" fill-rule="nonzero"/>
	</g>
</svg>
