<svg width="62.000000" height="62.000000" viewBox="0 0 62 62" fill="none" xmlns="http://www.w3.org/2000/svg" xmlns:xlink="http://www.w3.org/1999/xlink">
	<desc>
			Created with Pixso.
	</desc>
	<defs>
		<clipPath id="clip601_1474">
			<rect id="Frame" width="62.000000" height="62.000000" fill="white" fill-opacity="0"/>
		</clipPath>
	</defs>
	<rect id="Frame" width="62.000000" height="62.000000" fill="#FFFFFF" fill-opacity="0"/>
	<g clip-path="url(#clip601_1474)">
		<path id="Vector" d="M31 31C29.58 28.24 27.68 25.77 25.38 23.69C23.94 22.24 22.1 21.26 20.09 20.86C18.09 20.46 16.01 20.67 14.12 21.45C12.23 22.23 10.62 23.55 9.48 25.25C8.35 26.95 7.74 28.95 7.74 31C7.74 33.04 8.35 35.04 9.48 36.74C10.62 38.44 12.23 39.76 14.12 40.54C16.01 41.32 18.09 41.53 20.09 41.13C22.1 40.73 23.94 39.75 25.38 38.3C27.68 36.22 29.58 33.75 31 31C32.41 28.24 34.31 25.77 36.61 23.69C38.05 22.24 39.89 21.26 41.9 20.86C43.9 20.46 45.98 20.67 47.87 21.45C49.76 22.23 51.37 23.55 52.51 25.25C53.64 26.95 54.25 28.95 54.25 31C54.25 33.04 53.64 35.04 52.51 36.74C51.37 38.44 49.76 39.76 47.87 40.54C45.98 41.32 43.9 41.53 41.9 41.13C39.89 40.73 38.05 39.75 36.61 38.3C34.31 36.22 32.41 33.75 31 31Z" stroke="#000000" stroke-opacity="1.000000" stroke-width="4.000000" stroke-linejoin="round"/>
	</g>
</svg>
