<svg width="62.000000" height="62.000000" viewBox="0 0 62 62" fill="none" xmlns="http://www.w3.org/2000/svg" xmlns:xlink="http://www.w3.org/1999/xlink">
	<desc>
			Created with Pixso.
	</desc>
	<defs>
		<clipPath id="clip601_1461">
			<rect id="Frame" width="62.000000" height="62.000000" fill="white" fill-opacity="0"/>
		</clipPath>
	</defs>
	<rect id="Frame" width="62.000000" height="62.000000" fill="#FFFFFF" fill-opacity="0"/>
	<g clip-path="url(#clip601_1461)">
		<path id="Vector" d="M18.08 49.08C15.22 49.08 12.91 46.77 12.91 43.91C12.91 41.06 15.22 38.75 18.08 38.75C20.93 38.75 23.25 41.06 23.25 43.91C23.25 46.77 20.93 49.08 18.08 49.08Z" stroke="#000000" stroke-opacity="1.000000" stroke-width="4.000000" stroke-linejoin="round"/>
		<path id="Vector" d="M43.91 49.08C41.06 49.08 38.75 46.77 38.75 43.91C38.75 41.06 41.06 38.75 43.91 38.75C46.77 38.75 49.08 41.06 49.08 43.91C49.08 46.77 46.77 49.08 43.91 49.08Z" stroke="#000000" stroke-opacity="1.000000" stroke-width="4.000000" stroke-linejoin="round"/>
		<path id="Vector" d="M12.91 43.91L7.75 43.91L7.75 33.58M5.16 12.91L33.58 12.91L33.58 43.91M23.25 43.91L38.75 43.91M49.08 43.91L54.25 43.91L54.25 28.41L46.5 15.5L33.58 15.5M54.25 28.41L33.58 28.41" stroke="#000000" stroke-opacity="1.000000" stroke-width="4.000000" stroke-linejoin="round"/>
		<path id="Vector" d="M7.75 23.25L18.08 23.25" stroke="#000000" stroke-opacity="1.000000" stroke-width="4.000000" stroke-linejoin="round" stroke-linecap="round"/>
	</g>
</svg>
