<svg width="62.000000" height="62.000000" viewBox="0 0 62 62" fill="none" xmlns="http://www.w3.org/2000/svg" xmlns:xlink="http://www.w3.org/1999/xlink">
	<desc>
			Created with Pixso.
	</desc>
	<defs>
		<clipPath id="clip601_1483">
			<rect id="Frame" width="62.000000" height="62.000000" fill="white" fill-opacity="0"/>
		</clipPath>
	</defs>
	<rect id="Frame" width="62.000000" height="62.000000" fill="#FFFFFF" fill-opacity="0"/>
	<g clip-path="url(#clip601_1483)">
		<path id="Vector" d="M31 54.25C18.15 54.25 7.75 43.84 7.75 31C7.75 18.15 18.15 7.75 31 7.75C43.84 7.75 54.25 18.15 54.25 31C54.25 43.84 43.84 54.25 31 54.25Z" stroke="#000000" stroke-opacity="1.000000" stroke-width="4.000000" stroke-linejoin="round"/>
		<path id="Vector" d="M9.29 23.25L52.7 23.25" stroke="#000000" stroke-opacity="1.000000" stroke-width="4.000000" stroke-linejoin="round" stroke-linecap="round"/>
		<path id="Vector" d="M9.29 38.75L52.7 38.75" stroke="#000000" stroke-opacity="1.000000" stroke-width="4.000000" stroke-linejoin="round" stroke-linecap="round"/>
		<path id="Vector" d="M29.7 7.75C25.35 14.72 23.04 22.77 23.04 31C23.04 39.22 25.35 47.27 29.7 54.25" stroke="#000000" stroke-opacity="1.000000" stroke-width="4.000000" stroke-linejoin="round" stroke-linecap="round"/>
		<path id="Vector" d="M32.29 7.75C36.64 14.72 38.95 22.77 38.95 31C38.95 39.22 36.64 47.27 32.29 54.25" stroke="#000000" stroke-opacity="1.000000" stroke-width="4.000000" stroke-linejoin="round" stroke-linecap="round"/>
	</g>
</svg>
