<svg width="236.867065" height="160.127930" viewBox="0 0 236.867 160.128" fill="none" xmlns="http://www.w3.org/2000/svg" xmlns:xlink="http://www.w3.org/1999/xlink">
	<desc>
			Created with Pixso.
	</desc>
	<defs>
		<filter id="filter_918_144_dd" x="0.000000" y="0.000000" width="236.867065" height="160.127930" filterUnits="userSpaceOnUse" color-interpolation-filters="sRGB">
			<feFlood flood-opacity="0" result="BackgroundImageFix"/>
			<feColorMatrix in="SourceAlpha" type="matrix" values="0 0 0 0 0 0 0 0 0 0 0 0 0 0 0 0 0 0 127 0" result="hardAlpha"/>
			<feOffset dx="0" dy="0"/>
			<feGaussianBlur stdDeviation="17.3333"/>
			<feComposite in2="hardAlpha" operator="out" k2="-1" k3="1"/>
			<feColorMatrix type="matrix" values="0 0 0 0 0 0 0 0 0 0 0 0 0 0 0 0 0 0 1 0"/>
			<feBlend mode="normal" in2="BackgroundImageFix" result="effect_dropShadow_1"/>
			<feBlend mode="normal" in="SourceGraphic" in2="effect_dropShadow_1" result="shape"/>
		</filter>
	</defs>
	<g filter="url(#filter_918_144_dd)">
		<path id="D" d="M62.6 81.82L62.6 53.39L70.62 53.39C73.1 53.39 75.28 53.93 77.19 55.03C79.09 56.12 80.55 57.68 81.58 59.69C82.62 61.71 83.15 64.03 83.16 66.65L83.16 68.46C83.16 71.15 82.64 73.5 81.6 75.51C80.57 77.53 79.09 79.08 77.17 80.16C75.25 81.24 73.02 81.8 70.47 81.82L62.6 81.82ZM66.35 56.47L66.35 78.76L70.29 78.76C73.18 78.76 75.43 77.86 77.03 76.06C78.64 74.26 79.45 71.71 79.45 68.39L79.45 66.73C79.45 63.5 78.69 60.99 77.17 59.21C75.66 57.41 73.51 56.5 70.72 56.47L66.35 56.47Z" fill="#FFFFFF" fill-opacity="1.000000" fill-rule="nonzero"/>
		<path id="D" d="M70.62 52.39L61.6 52.39L61.6 82.82L70.48 82.82Q74.56 82.78 77.66 81.04Q79.03 80.26 80.13 79.2Q81.54 77.83 82.49 75.97Q84.16 72.73 84.16 68.46L84.16 66.64Q84.14 62.48 82.47 59.24Q81.48 57.29 79.99 55.87Q78.95 54.89 77.68 54.16Q77.38 53.99 77.07 53.83Q74.21 52.39 70.62 52.39ZM63.6 53.39L62.6 53.39L62.6 81.82L70.47 81.82C73.02 81.8 75.25 81.24 77.17 80.16C79.09 79.08 80.57 77.53 81.6 75.51Q83.16 72.49 83.16 68.46L83.16 66.65Q83.14 62.72 81.58 59.69Q80.66 57.88 79.26 56.56L79.26 56.56Q78.33 55.68 77.19 55.03Q76.99 54.91 76.78 54.8Q74.07 53.39 70.62 53.39L63.6 53.39ZM70.29 77.76L67.35 77.76L67.35 57.47L70.71 57.47Q73.55 57.5 75.37 58.87Q75.94 59.3 76.41 59.86Q78.45 62.25 78.45 66.73L78.45 68.39Q78.45 72.98 76.28 75.4Q75.85 75.89 75.33 76.28Q73.37 77.76 70.29 77.76ZM67.35 56.47L70.72 56.47Q73.8 56.5 75.84 57.97Q76.57 58.5 77.17 59.21Q79.45 61.88 79.45 66.73L79.45 68.39Q79.45 73.37 77.03 76.06Q76.46 76.7 75.78 77.19Q73.59 78.76 70.29 78.76L66.35 78.76L66.35 56.47L67.35 56.47Z" fill="#000000" fill-opacity="1.000000" fill-rule="evenodd"/>
		<path id="C" d="M128.51 72.8C128.16 75.81 127.05 78.13 125.17 79.77C123.31 81.4 120.83 82.21 117.73 82.21C114.37 82.21 111.68 81.01 109.65 78.6C107.63 76.19 106.62 72.97 106.62 68.93L106.62 66.2C106.62 63.55 107.09 61.23 108.03 59.23C108.98 57.22 110.32 55.68 112.05 54.62C113.78 53.54 115.79 53 118.07 53C121.09 53 123.51 53.84 125.33 55.53C127.15 57.21 128.21 59.54 128.51 62.53L124.74 62.53C124.42 60.26 123.71 58.62 122.62 57.6C121.54 56.59 120.02 56.08 118.07 56.08C115.67 56.08 113.79 56.97 112.42 58.74C111.07 60.51 110.39 63.03 110.39 66.3L110.39 69.05C110.39 72.14 111.03 74.59 112.32 76.41C113.61 78.24 115.42 79.15 117.73 79.15C119.82 79.15 121.41 78.68 122.52 77.74C123.64 76.79 124.38 75.14 124.74 72.8L128.51 72.8Z" fill="#FFFFFF" fill-opacity="1.000000" fill-rule="nonzero"/>
		<path id="C" d="M125.12 81.09Q125.49 80.83 125.83 80.53L125.83 80.52Q126.37 80.05 126.83 79.52Q129.03 76.96 129.51 72.92L129.64 71.8L123.89 71.8L123.76 72.65Q123.27 75.79 121.87 76.98Q120.49 78.15 117.73 78.15Q116.1 78.15 114.87 77.44Q113.87 76.87 113.14 75.84Q111.39 73.36 111.39 69.05L111.39 66.3Q111.39 61.73 113.21 59.35Q113.91 58.45 114.82 57.9Q116.2 57.08 118.07 57.08Q120.6 57.08 121.94 58.34Q123.32 59.62 123.75 62.67L123.88 63.53L129.62 63.53L129.51 62.43Q129.11 58.41 126.97 55.82Q126.53 55.28 126.01 54.8Q125.45 54.28 124.83 53.86Q122.08 52 118.07 52Q115 52 112.53 53.21Q112.01 53.46 111.52 53.76Q110.8 54.21 110.16 54.75Q108.28 56.35 107.12 58.8Q105.62 62.01 105.62 66.2L105.62 68.93Q105.62 75.04 108.58 78.87Q108.73 79.06 108.88 79.25Q110.28 80.9 112.06 81.87Q114.53 83.21 117.73 83.21Q122.19 83.21 125.12 81.09ZM128.36 73.8Q127.78 76.97 125.95 79.01L125.95 79.01Q125.59 79.41 125.17 79.77Q124.94 79.97 124.7 80.16L124.7 80.16Q122 82.21 117.73 82.21Q114.76 82.21 112.48 80.96Q110.9 80.08 109.65 78.6Q109.58 78.52 109.51 78.44L109.51 78.44Q106.62 74.85 106.62 68.93L106.62 66.2Q106.62 62.23 108.03 59.23Q109.11 56.93 110.89 55.45L110.89 55.45Q111.44 54.99 112.05 54.62Q112.44 54.37 112.85 54.16L112.85 54.16Q115.16 53 118.07 53Q121.88 53 124.42 54.79Q124.9 55.13 125.33 55.53Q125.73 55.9 126.08 56.32Q127.86 58.39 128.38 61.53Q128.46 62.01 128.51 62.53L124.74 62.53Q124.26 59.13 122.62 57.6Q122.54 57.53 122.45 57.46Q120.85 56.08 118.07 56.08Q115.95 56.08 114.37 57Q113.27 57.64 112.42 58.74Q110.39 61.39 110.39 66.3L110.39 69.05Q110.39 73.68 112.32 76.41Q113.2 77.66 114.41 78.34Q115.84 79.15 117.73 79.15Q120.86 79.15 122.52 77.74Q124.2 76.32 124.74 72.8L128.51 72.8Q128.45 73.31 128.36 73.8Z" fill="#000000" fill-opacity="1.000000" fill-rule="evenodd"/>
		<path id="E" d="M168.67 68.68L156.35 68.68L156.35 78.76L170.66 78.76L170.66 81.82L152.6 81.82L152.6 53.39L170.47 53.39L170.47 56.47L156.35 56.47L156.35 65.61L168.67 65.61L168.67 68.68Z" fill="#FFFFFF" fill-opacity="1.000000" fill-rule="nonzero"/>
		<path id="E" d="M157.35 68.68L156.35 68.68L156.35 78.76L170.66 78.76L170.66 81.82L152.6 81.82L152.6 53.39L170.47 53.39L170.47 56.47L156.35 56.47L156.35 65.61L168.67 65.61L168.67 68.68L157.35 68.68ZM157.35 64.61L169.67 64.61L169.67 69.68L157.35 69.68L157.35 77.76L171.66 77.76L171.66 82.82L151.6 82.82L151.6 52.39L171.47 52.39L171.47 57.47L157.35 57.47L157.35 64.61Z" fill="#000000" fill-opacity="1.000000" fill-rule="evenodd"/>
		<path id="Vector" d="M66.74 92.74L67.87 92.74L66.06 94.87L65.24 94.87L66.74 92.74ZM119.35 104.79L118.43 104.79L118.43 93.09L119.35 93.09L119.35 104.79ZM52.3 104.44L52.3 93.35L55.48 93.35Q56.68 93.35 57.67 93.81Q57.84 93.88 58 93.97Q58.44 94.22 58.81 94.55Q59.36 95.05 59.73 95.75Q59.76 95.8 59.78 95.85L59.78 95.85Q60.35 96.97 60.35 98.38L60.35 99.4Q60.35 100.89 59.74 102.04Q59.4 102.66 58.92 103.13L58.92 103.13Q58.51 103.53 57.99 103.81Q57.96 103.83 57.93 103.85Q56.83 104.44 55.41 104.44L52.3 104.44ZM107.41 101.33C107.28 102.5 106.86 103.39 106.14 104.01Q106.06 104.08 105.98 104.14L105.98 104.14Q104.94 104.94 103.29 104.94Q102.33 104.94 101.54 104.58L101.54 104.58Q101.3 104.47 101.08 104.32C100.44 103.91 99.95 103.33 99.6 102.58Q99.08 101.45 99.07 99.99L99.07 98.55Q99.07 97.07 99.59 95.93C99.94 95.17 100.44 94.58 101.09 94.17Q101.31 94.03 101.53 93.93L101.53 93.93Q102.35 93.54 103.36 93.54C104.55 93.54 105.5 93.87 106.19 94.51C106.89 95.15 107.29 96.04 107.41 97.17L106.45 97.17Q106.27 95.7 105.44 94.99Q104.67 94.34 103.36 94.34C102.34 94.34 101.53 94.72 100.93 95.47C100.33 96.22 100.03 97.26 100.03 98.59L100.03 99.94Q100.03 101.86 100.9 103.01C101.49 103.77 102.29 104.15 103.29 104.15C104.28 104.15 105.02 103.92 105.52 103.45C106.03 102.98 106.34 102.27 106.45 101.33L107.41 101.33ZM147.84 99.49L142.51 99.49L142.51 103.93L148.64 103.93L148.64 104.71L141.55 104.71L141.55 93.81L148.6 93.81L148.6 94.6L142.51 94.6L142.51 98.71L147.84 98.71L147.84 99.49ZM53.26 94.15L53.26 103.65L55.42 103.65Q56.67 103.65 57.58 103.09Q57.98 102.84 58.31 102.49Q58.45 102.34 58.57 102.18Q59.4 101.07 59.4 99.34L59.4 98.37Q59.4 96.76 58.64 95.69L58.64 95.69Q58.5 95.49 58.33 95.3Q57.97 94.93 57.54 94.67Q56.67 94.15 55.5 94.15L53.26 94.15ZM182.65 94.54L182.65 96.61L184.4 96.61L184.4 97.35L182.65 97.35L182.65 102.74C182.65 103.19 182.73 103.53 182.9 103.75C183.07 103.96 183.36 104.07 183.75 104.07C183.91 104.07 184.16 104.05 184.51 104L184.55 104.73C184.31 104.82 183.97 104.86 183.55 104.86C182.91 104.86 182.44 104.68 182.15 104.33Q181.71 103.79 181.71 102.75L181.71 97.35L180.15 97.35L180.15 96.61L181.71 96.61L181.71 94.54L182.65 94.54ZM65.87 104.59C65.15 104.59 64.49 104.42 63.91 104.07C63.33 103.73 62.88 103.25 62.55 102.63Q62.5 102.53 62.46 102.43L62.46 102.43Q62.07 101.58 62.07 100.55L62.07 100.23C62.07 99.43 62.23 98.72 62.54 98.08Q62.88 97.41 63.4 96.94L63.4 96.94Q63.62 96.75 63.86 96.59Q64.34 96.28 64.87 96.15Q65.27 96.04 65.69 96.04C66.72 96.04 67.54 96.39 68.14 97.07C68.74 97.75 69.05 98.68 69.05 99.87L69.05 100.38L63 100.38L63 100.55C63 101.49 63.27 102.27 63.82 102.89C64.38 103.51 65.07 103.82 65.91 103.82C66.41 103.82 66.85 103.73 67.23 103.56C67.62 103.38 67.97 103.09 68.28 102.7L68.87 103.14Q68.47 103.7 67.93 104.04Q67.07 104.59 65.87 104.59ZM74 103.82C74.66 103.82 75.2 103.64 75.64 103.29C76.08 102.93 76.33 102.46 76.36 101.89L77.26 101.89C77.24 102.4 77.07 102.86 76.78 103.27C76.48 103.68 76.08 104.01 75.59 104.24C75.1 104.47 74.57 104.59 74 104.59Q72.91 104.59 72.11 104.1L72.11 104.1Q71.69 103.85 71.36 103.46Q71.32 103.41 71.28 103.36L71.27 103.36Q70.39 102.25 70.39 100.43L70.39 100.16Q70.39 98.94 70.82 98C71.12 97.38 71.53 96.89 72.08 96.55Q72.16 96.5 72.25 96.45Q73.01 96.04 74 96.04C74.93 96.04 75.69 96.31 76.29 96.85Q76.62 97.15 76.84 97.51Q77.22 98.14 77.26 98.98L76.36 98.98C76.32 98.33 76.08 97.81 75.64 97.41C75.21 97.02 74.66 96.82 74 96.82C73.15 96.82 72.49 97.12 72.02 97.71Q71.33 98.6 71.33 100.21L71.33 100.48C71.33 101.53 71.56 102.35 72.02 102.94Q72.26 103.24 72.57 103.44Q73.16 103.82 74 103.82ZM78.62 100.2C78.62 99.4 78.78 98.69 79.09 98.05C79.41 97.42 79.86 96.93 80.43 96.58C81.01 96.22 81.67 96.04 82.4 96.04C83.53 96.04 84.44 96.43 85.14 97.2C85.84 97.97 86.19 98.99 86.19 100.26L86.19 100.45C86.19 101.24 86.03 101.96 85.71 102.6C85.4 103.24 84.96 103.73 84.38 104.07C83.81 104.42 83.15 104.59 82.42 104.59C81.29 104.59 80.38 104.21 79.67 103.44C78.97 102.67 78.62 101.65 78.62 100.38L78.62 100.2ZM92.05 96.97C91.85 96.94 91.64 96.92 91.41 96.92C90.83 96.92 90.33 97.08 89.93 97.4C89.52 97.71 89.24 98.17 89.06 98.78L89.06 104.44L88.13 104.44L88.13 96.2L89.05 96.2L89.06 97.51C89.56 96.53 90.36 96.04 91.45 96.04C91.71 96.04 91.92 96.08 92.07 96.14L92.05 96.97ZM108.98 100.55Q108.98 99.36 109.44 98.41C109.76 97.77 110.2 97.28 110.76 96.93Q111 96.78 111.26 96.67L111.26 96.67Q111.92 96.39 112.69 96.39C113.8 96.39 114.69 96.78 115.38 97.55C116.07 98.32 116.41 99.34 116.41 100.61L116.41 100.8C116.41 101.59 116.25 102.31 115.94 102.95C115.63 103.59 115.2 104.08 114.63 104.42Q114.46 104.53 114.28 104.61Q113.57 104.94 112.7 104.94C111.6 104.94 110.71 104.56 110.01 103.79C109.33 103.02 108.98 102 108.98 100.73L108.98 100.55ZM121.35 100.55Q121.35 99.36 121.81 98.41C122.12 97.77 122.56 97.28 123.12 96.93C123.69 96.57 124.34 96.39 125.05 96.39C126.16 96.39 127.06 96.78 127.74 97.55Q127.87 97.69 127.97 97.84L127.97 97.84Q128.77 98.93 128.77 100.61L128.77 100.8Q128.77 101.99 128.31 102.95C128 103.59 127.56 104.08 127 104.42C126.43 104.77 125.79 104.94 125.07 104.94Q124.08 104.94 123.31 104.53Q122.8 104.25 122.38 103.79Q122.25 103.65 122.14 103.5Q121.35 102.4 121.35 100.73L121.35 100.55ZM134.53 97.32C134.33 97.29 134.12 97.27 133.9 97.27C133.33 97.27 132.84 97.43 132.44 97.75C132.05 98.06 131.77 98.52 131.6 99.13L131.6 104.79L130.68 104.79L130.68 96.55L131.58 96.55L131.6 97.86C132.08 96.88 132.87 96.39 133.94 96.39C134.2 96.39 134.4 96.43 134.55 96.49L134.53 97.32ZM165.05 100.74C165.05 102.01 164.76 103.01 164.17 103.75C163.59 104.49 162.81 104.86 161.83 104.86C160.67 104.86 159.78 104.47 159.17 103.69L159.17 107.82L158.23 107.82L158.23 96.61L159.1 96.61L159.15 97.76C159.76 96.89 160.64 96.46 161.8 96.46C162.81 96.46 163.61 96.83 164.18 97.56Q165.05 98.66 165.05 100.62L165.05 100.74ZM170.41 104.86Q169.62 104.86 168.94 104.59Q168.69 104.49 168.45 104.35C167.87 104.01 167.42 103.54 167.1 102.94C166.77 102.33 166.61 101.65 166.61 100.89L166.61 100.57Q166.61 99.42 167.07 98.49Q167.08 98.48 167.08 98.47C167.4 97.85 167.84 97.36 168.4 97C168.97 96.64 169.58 96.46 170.24 96.46C171.26 96.46 172.08 96.8 172.68 97.47C173.28 98.14 173.58 99.06 173.58 100.22L173.58 100.72L167.54 100.72L167.54 100.89C167.54 101.81 167.82 102.58 168.37 103.19C168.92 103.8 169.61 104.1 170.45 104.1C170.95 104.1 171.39 104.02 171.77 103.84Q172.35 103.58 172.82 103L173.4 103.43C172.72 104.38 171.72 104.86 170.41 104.86ZM179.32 97.38C179.12 97.34 178.91 97.32 178.68 97.32Q177.99 97.32 177.46 97.62Q177.32 97.7 177.2 97.8C176.8 98.1 176.51 98.56 176.34 99.15L176.34 104.71L175.41 104.71L175.41 96.61L176.32 96.61L176.34 97.9C176.83 96.94 177.63 96.46 178.72 96.46C178.98 96.46 179.19 96.5 179.34 96.56L179.32 97.38ZM153.11 99.9L155.39 96.61L156.51 96.61L153.64 100.59L156.63 104.71L155.53 104.71L153.12 101.28L150.71 104.71L149.61 104.71L152.59 100.59L149.72 96.61L150.83 96.61L153.11 99.9ZM65.69 96.82Q65.15 96.82 64.7 97.02Q64.26 97.21 63.91 97.57C63.43 98.08 63.14 98.75 63.03 99.6L68.11 99.6L68.11 99.5C68.09 98.71 67.86 98.06 67.42 97.57Q67.15 97.27 66.83 97.09Q66.33 96.82 65.69 96.82ZM79.56 100.45C79.56 101.43 79.83 102.24 80.35 102.88Q80.7 103.3 81.16 103.54Q81.71 103.82 82.42 103.82C83.26 103.82 83.95 103.51 84.47 102.88Q84.51 102.83 84.55 102.78L84.55 102.77Q85.26 101.84 85.26 100.37L85.26 100.2C85.26 99.57 85.14 98.99 84.9 98.47C84.66 97.94 84.32 97.54 83.89 97.25C83.45 96.97 82.96 96.82 82.4 96.82Q81.76 96.82 81.24 97.07Q80.74 97.31 80.36 97.78Q80.31 97.84 80.26 97.9L80.26 97.9Q79.56 98.83 79.56 100.28L79.56 100.45ZM109.91 100.8Q109.91 102.12 110.52 103.02Q110.59 103.13 110.67 103.23Q111.04 103.67 111.5 103.9Q112.04 104.17 112.7 104.17C113.54 104.17 114.21 103.86 114.72 103.23C115.24 102.59 115.5 101.76 115.5 100.72L115.5 100.55C115.5 99.92 115.38 99.34 115.14 98.82Q114.84 98.14 114.32 97.73Q114.24 97.66 114.15 97.61Q113.95 97.47 113.73 97.37Q113.25 97.17 112.69 97.17C111.87 97.17 111.2 97.49 110.68 98.13C110.16 98.77 109.91 99.6 109.91 100.63L109.91 100.8ZM122.27 100.8C122.27 101.78 122.53 102.59 123.04 103.23C123.56 103.86 124.23 104.17 125.07 104.17C125.9 104.17 126.57 103.86 127.08 103.23C127.6 102.59 127.86 101.76 127.86 100.72L127.86 100.55Q127.86 99.6 127.51 98.82C127.27 98.29 126.94 97.89 126.51 97.61C126.09 97.32 125.6 97.17 125.05 97.17C124.23 97.17 123.56 97.49 123.05 98.13C122.53 98.77 122.27 99.6 122.27 100.63L122.27 100.8ZM170.24 97.23Q169.68 97.23 169.21 97.43Q168.79 97.62 168.45 97.97C167.97 98.46 167.68 99.12 167.58 99.96L172.65 99.96L172.65 99.86Q172.62 98.87 172.14 98.2Q172.06 98.07 171.96 97.96C171.52 97.47 170.94 97.23 170.24 97.23ZM164.11 100.59C164.11 99.55 163.89 98.74 163.44 98.14C163 97.54 162.38 97.24 161.59 97.24Q160.76 97.24 160.16 97.61Q160.14 97.62 160.12 97.63Q160.12 97.63 160.11 97.64Q160.01 97.71 159.91 97.78L159.91 97.78Q159.44 98.16 159.17 98.79L159.17 102.67C159.39 103.14 159.71 103.49 160.13 103.74Q160.75 104.1 161.61 104.1C162.39 104.1 163.01 103.8 163.44 103.21C163.89 102.6 164.11 101.73 164.11 100.59Z" fill="#FFFFFF" fill-opacity="1.000000" fill-rule="evenodd"/>
		<path id="Vector" d="M66.2 95.17L68.1 92.93L68.52 92.44L66.58 92.44L64.66 95.17L66.2 95.17ZM67.48 92.74L66.74 92.74L65.45 94.57L65.24 94.87L66.06 94.87L67.62 93.04L67.87 92.74L67.48 92.74ZM118.13 92.79L118.13 105.09L119.65 105.09L119.65 92.79L118.13 92.79ZM55.48 93.05L52 93.05L52 104.74L55.41 104.74Q56.88 104.74 58.02 104.14Q58.08 104.11 58.13 104.08Q58.69 103.77 59.13 103.34Q59.64 102.84 60 102.18Q60.01 102.16 60.02 102.14Q60.65 100.94 60.65 99.4L60.65 98.38Q60.65 96.92 60.07 95.76Q60.03 95.68 59.99 95.6Q59.6 94.87 59.02 94.34Q58.62 93.98 58.14 93.71Q57.95 93.6 57.75 93.51Q56.72 93.05 55.48 93.05ZM118.43 104.79L119.35 104.79L119.35 93.09L118.43 93.09L118.43 104.79ZM106.33 104.24L106.34 104.24Q106.51 104.09 106.66 103.92Q107.53 102.95 107.71 101.36L107.74 101.03L106.19 101.03L106.16 101.29Q105.99 102.6 105.32 103.23Q104.65 103.85 103.29 103.85Q102.54 103.85 101.96 103.53Q101.49 103.28 101.14 102.82Q100.33 101.76 100.33 99.94L100.33 98.59Q100.33 96.7 101.16 95.66Q101.51 95.23 101.96 94.98Q102.56 94.64 103.36 94.64Q104.6 94.64 105.29 95.27Q105.3 95.27 105.3 95.27Q105.99 95.9 106.16 97.21L106.19 97.47L107.74 97.47L107.71 97.14Q107.56 95.65 106.77 94.68Q106.6 94.48 106.4 94.29Q106.26 94.17 106.12 94.06Q105.04 93.24 103.36 93.24Q102.31 93.24 101.44 93.64Q101.18 93.76 100.93 93.92Q100.66 94.09 100.41 94.3Q99.73 94.9 99.32 95.8Q98.77 97.01 98.77 98.55L98.77 99.99Q98.78 101.51 99.33 102.71Q99.76 103.63 100.46 104.23Q100.67 104.42 100.92 104.58Q101.18 104.74 101.45 104.87Q102.29 105.24 103.29 105.24Q105 105.24 106.11 104.42Q106.22 104.34 106.33 104.24ZM52.3 93.35L52.3 104.44L55.41 104.44Q56.83 104.44 57.93 103.85L57.93 103.85Q57.96 103.83 57.99 103.81Q58.51 103.53 58.92 103.13L58.92 103.13Q59.4 102.66 59.74 102.04Q60.35 100.89 60.35 99.4L60.35 98.38Q60.35 96.97 59.78 95.85L59.78 95.85L59.78 95.85Q59.76 95.8 59.73 95.75Q59.36 95.05 58.81 94.55L58.81 94.55L58.81 94.55Q58.44 94.22 58 93.97Q57.84 93.88 57.67 93.81Q56.68 93.35 55.48 93.35L52.3 93.35ZM142.81 99.49L147.84 99.49L147.84 98.71L142.51 98.71L142.51 94.6L148.6 94.6L148.6 93.81L141.55 93.81L141.55 104.71L148.64 104.71L148.64 103.93L142.51 103.93L142.51 99.49L142.81 99.49ZM142.81 99.79L142.81 103.63L148.94 103.63L148.94 105.01L141.25 105.01L141.25 93.51L148.9 93.51L148.9 94.9L142.81 94.9L142.81 98.41L148.14 98.41L148.14 99.79L142.81 99.79ZM107.37 101.63C107.38 101.53 107.4 101.43 107.41 101.33L106.45 101.33C106.34 102.27 106.03 102.98 105.52 103.45C105.02 103.92 104.28 104.15 103.29 104.15C102.29 104.15 101.49 103.77 100.9 103.01Q100.03 101.86 100.03 99.94L100.03 98.59C100.03 97.26 100.33 96.22 100.93 95.47C101.53 94.72 102.34 94.34 103.36 94.34Q104.67 94.34 105.44 94.99Q106.27 95.7 106.45 97.17L107.41 97.17C107.4 97.07 107.38 96.97 107.37 96.87C107.22 95.88 106.83 95.09 106.19 94.51C105.5 93.87 104.55 93.54 103.36 93.54Q102.35 93.54 101.53 93.93L101.53 93.93L101.53 93.93Q101.31 94.03 101.09 94.17C100.44 94.58 99.94 95.17 99.59 95.93Q99.07 97.07 99.07 98.55L99.07 99.99Q99.08 101.45 99.6 102.58C99.95 103.33 100.44 103.91 101.08 104.32Q101.3 104.47 101.54 104.58L101.54 104.58L101.54 104.58Q102.33 104.94 103.29 104.94Q104.94 104.94 105.98 104.14L105.98 104.14Q106.06 104.08 106.14 104.01C106.79 103.45 107.2 102.65 107.37 101.63ZM55.42 103.35L53.56 103.35L53.56 94.45L55.5 94.45Q56.61 94.45 57.42 94.95Q57.8 95.18 58.11 95.51Q58.24 95.65 58.36 95.81Q59.1 96.82 59.1 98.37L59.1 99.34Q59.1 101.01 58.29 102.05Q58.2 102.17 58.09 102.28Q57.8 102.59 57.45 102.81Q56.61 103.35 55.42 103.35ZM53.56 94.15L55.5 94.15Q56.67 94.15 57.54 94.67L57.54 94.67Q57.97 94.93 58.33 95.3Q58.5 95.49 58.64 95.69L58.64 95.69Q59.4 96.76 59.4 98.37L59.4 99.34Q59.4 101.07 58.57 102.18Q58.45 102.34 58.31 102.49Q57.98 102.84 57.58 103.09Q56.67 103.65 55.42 103.65L53.26 103.65L53.26 94.15L53.56 94.15ZM184.7 96.31L182.95 96.31L182.95 94.24L181.41 94.24L181.41 96.31L179.85 96.31L179.85 97.65L181.41 97.65L181.41 102.75Q181.41 103.9 181.92 104.52Q181.99 104.61 182.08 104.69Q182.6 105.16 183.55 105.16Q184.23 105.16 184.65 105.02L184.86 104.94L184.79 103.66L184.47 103.7Q183.97 103.77 183.75 103.77Q183.3 103.77 183.14 103.56Q182.95 103.31 182.95 102.74L182.95 97.65L184.7 97.65L184.7 96.31ZM182.95 97.35L184.4 97.35L184.4 96.61L182.65 96.61L182.65 94.54L181.71 94.54L181.71 96.61L180.15 96.61L180.15 97.35L181.71 97.35L181.71 102.75Q181.71 103.79 182.15 104.33C182.44 104.68 182.91 104.86 183.55 104.86C183.97 104.86 184.31 104.82 184.55 104.73L184.53 104.3L184.51 104C184.4 104.02 184.3 104.03 184.21 104.04C184.01 104.06 183.86 104.07 183.75 104.07C183.36 104.07 183.07 103.96 182.9 103.75C182.73 103.53 182.65 103.19 182.65 102.74L182.65 97.35L182.95 97.35ZM63.06 103.8Q63.37 104.1 63.76 104.33L63.76 104.33Q64.05 104.5 64.35 104.62Q65.06 104.89 65.87 104.89Q67.15 104.89 68.07 104.31Q68.67 103.93 69.11 103.31L69.28 103.07L68.23 102.29L68.05 102.51Q67.62 103.05 67.1 103.28Q66.59 103.52 65.91 103.52Q65.33 103.52 64.86 103.3Q64.41 103.1 64.05 102.69Q63.86 102.48 63.72 102.24Q63.33 101.57 63.3 100.68L69.35 100.68L69.35 99.87Q69.35 98.1 68.48 97.02Q68.43 96.94 68.36 96.87Q68.03 96.49 67.61 96.24Q66.8 95.74 65.69 95.74Q65.22 95.74 64.77 95.86Q64.21 96.01 63.7 96.34Q63.43 96.52 63.19 96.73Q62.63 97.23 62.27 97.95Q62.26 97.96 62.26 97.98Q61.77 98.98 61.77 100.23L61.77 100.55Q61.77 101.61 62.16 102.5Q62.22 102.64 62.29 102.77Q62.6 103.36 63.06 103.8ZM63 100.68C63.03 101.56 63.3 102.3 63.82 102.89C64.38 103.51 65.07 103.82 65.91 103.82C66.41 103.82 66.85 103.73 67.23 103.56C67.62 103.38 67.97 103.09 68.28 102.7L68.87 103.14Q68.82 103.2 68.78 103.25Q68.73 103.32 68.68 103.37Q68.35 103.77 67.93 104.04Q67.07 104.59 65.87 104.59C65.15 104.59 64.49 104.42 63.91 104.07C63.33 103.73 62.88 103.25 62.55 102.63Q62.5 102.53 62.46 102.43L62.46 102.43Q62.07 101.58 62.07 100.55L62.07 100.23C62.07 99.43 62.23 98.72 62.54 98.08Q62.88 97.41 63.4 96.94L63.4 96.94L63.4 96.94L63.4 96.94Q63.62 96.75 63.86 96.59Q64.34 96.28 64.87 96.15L64.87 96.15Q65.27 96.04 65.69 96.04C66.72 96.04 67.54 96.39 68.14 97.07C68.74 97.75 69.05 98.68 69.05 99.87L69.05 100.38L63 100.38L63 100.55C63 100.6 63 100.64 63 100.68ZM75.89 102.52Q75.74 102.82 75.45 103.06L75.45 103.06Q75.36 103.13 75.27 103.19Q74.74 103.52 74 103.52Q73.23 103.52 72.7 103.16Q72.45 103 72.26 102.75Q71.63 101.95 71.63 100.48L71.63 100.21Q71.63 98.71 72.26 97.9Q72.47 97.64 72.73 97.46Q73.25 97.12 74 97.12Q74.66 97.12 75.14 97.41Q75.3 97.51 75.44 97.64Q75.62 97.8 75.75 98Q76.03 98.42 76.06 99L76.08 99.28L77.58 99.28L77.56 98.96Q77.52 98.06 77.11 97.37Q76.87 96.96 76.49 96.63Q76.24 96.4 75.96 96.24Q75.12 95.74 74 95.74Q72.98 95.74 72.17 96.16Q72.04 96.22 71.92 96.3Q71.66 96.46 71.44 96.66Q70.89 97.15 70.55 97.87Q70.09 98.87 70.09 100.16L70.09 100.43Q70.09 102.31 70.99 103.49Q71.06 103.58 71.13 103.66Q71.51 104.1 71.98 104.38Q72.84 104.89 74 104.89Q74.63 104.89 75.19 104.72Q75.46 104.63 75.71 104.51Q76.34 104.22 76.77 103.75Q76.91 103.61 77.02 103.45Q77.29 103.07 77.43 102.64Q77.54 102.29 77.56 101.91L77.58 101.59L76.08 101.59L76.06 101.88Q76.04 102.23 75.89 102.52ZM79.7 96.76Q79.17 97.24 78.83 97.92L78.83 97.92Q78.82 97.93 78.81 97.95Q78.33 98.95 78.33 100.2L78.33 100.38Q78.33 102.07 79.11 103.21Q79.27 103.44 79.45 103.64Q79.9 104.13 80.46 104.43Q81.31 104.89 82.42 104.89Q83.36 104.89 84.15 104.53Q84.35 104.44 84.54 104.33Q84.86 104.14 85.13 103.89Q85.65 103.41 85.98 102.74Q86 102.7 86.01 102.67Q86.49 101.67 86.49 100.45L86.49 100.26Q86.49 98.56 85.69 97.41Q85.54 97.2 85.36 97Q84.92 96.51 84.37 96.21Q83.51 95.74 82.4 95.74Q81.54 95.74 80.81 96.05Q80.54 96.16 80.28 96.32Q79.96 96.51 79.7 96.76ZM90.32 97.49Q90.79 97.22 91.41 97.22Q91.72 97.22 92 97.27L92.34 97.33L92.38 95.95L92.19 95.87Q91.91 95.74 91.45 95.74Q90.58 95.74 89.93 96.12Q89.9 96.14 89.88 96.15Q89.85 96.17 89.81 96.19Q89.57 96.36 89.35 96.57L89.35 95.9L87.83 95.9L87.83 104.74L89.36 104.74L89.36 98.82Q89.6 98.04 90.11 97.64Q90.21 97.56 90.32 97.49ZM89.06 98.78C89.24 98.17 89.52 97.71 89.93 97.4C90.33 97.08 90.83 96.92 91.41 96.92C91.53 96.92 91.64 96.92 91.75 96.93C91.85 96.94 91.95 96.96 92.05 96.97L92.06 96.67L92.07 96.14C91.92 96.08 91.71 96.04 91.45 96.04C90.55 96.04 89.85 96.37 89.36 97.03C89.25 97.17 89.15 97.33 89.06 97.51L89.06 96.93L89.05 96.2L88.13 96.2L88.13 104.44L89.06 104.44L89.06 98.78ZM75.64 103.29C75.2 103.64 74.66 103.82 74 103.82Q73.16 103.82 72.57 103.44L72.57 103.44Q72.26 103.24 72.02 102.94C71.56 102.35 71.33 101.53 71.33 100.48L71.33 100.21Q71.33 98.6 72.02 97.71C72.49 97.12 73.15 96.82 74 96.82C74.66 96.82 75.21 97.02 75.64 97.41C76.08 97.81 76.32 98.33 76.36 98.98L77.26 98.98Q77.25 98.82 77.24 98.68Q77.15 98.02 76.84 97.51Q76.62 97.15 76.29 96.85C75.69 96.31 74.93 96.04 74 96.04Q73.01 96.04 72.25 96.45L72.25 96.45Q72.16 96.5 72.08 96.55C71.53 96.89 71.12 97.38 70.82 98Q70.39 98.94 70.39 100.16L70.39 100.43Q70.39 102.25 71.27 103.36L71.28 103.36L71.28 103.37Q71.32 103.42 71.36 103.46Q71.69 103.85 72.11 104.1L72.11 104.1Q72.91 104.59 74 104.59C74.57 104.59 75.1 104.47 75.59 104.24C76.08 104.01 76.48 103.68 76.78 103.27C77.01 102.94 77.17 102.58 77.23 102.19C77.25 102.1 77.26 102 77.26 101.89L76.36 101.89C76.33 102.46 76.08 102.93 75.64 103.29ZM79.09 98.05C78.78 98.69 78.62 99.4 78.62 100.2L78.62 100.38C78.62 101.65 78.97 102.67 79.67 103.44C80.38 104.21 81.29 104.59 82.42 104.59C83.15 104.59 83.81 104.42 84.38 104.07C84.96 103.73 85.4 103.24 85.71 102.6C86.03 101.96 86.19 101.24 86.19 100.45L86.19 100.26C86.19 98.99 85.84 97.97 85.14 97.2C84.44 96.43 83.53 96.04 82.4 96.04C81.67 96.04 81.01 96.22 80.43 96.58C79.86 96.93 79.41 97.42 79.09 98.05ZM110.08 97.07Q109.53 97.56 109.18 98.27L109.17 98.27Q108.68 99.29 108.68 100.55L108.68 100.73Q108.68 102.46 109.49 103.62Q109.63 103.81 109.79 103.99Q110.25 104.5 110.83 104.81Q111.65 105.24 112.7 105.24Q113.61 105.24 114.36 104.91Q114.58 104.81 114.79 104.68Q115.08 104.5 115.33 104.28Q115.87 103.79 116.21 103.09L116.21 103.08Q116.71 102.06 116.71 100.8L116.71 100.61Q116.71 98.87 115.89 97.71Q115.76 97.52 115.6 97.35Q115.15 96.84 114.59 96.54Q113.76 96.09 112.69 96.09Q111.87 96.09 111.17 96.38Q110.87 96.5 110.6 96.67Q110.32 96.85 110.08 97.07ZM122.44 97.07Q121.89 97.56 121.54 98.27L121.54 98.27Q121.05 99.29 121.05 100.55L121.05 100.73Q121.05 102.46 121.86 103.62Q121.99 103.81 122.15 103.99Q122.62 104.5 123.19 104.81Q124.01 105.24 125.07 105.24Q125.97 105.24 126.73 104.91Q126.95 104.81 127.16 104.68Q127.45 104.5 127.7 104.28Q128.23 103.79 128.58 103.09L128.58 103.08Q129.07 102.06 129.07 100.8L129.07 100.61Q129.07 98.87 128.25 97.71Q128.12 97.52 127.97 97.35Q127.51 96.84 126.95 96.54Q126.12 96.09 125.05 96.09Q124.23 96.09 123.53 96.38Q123.24 96.5 122.96 96.67Q122.68 96.85 122.44 97.07ZM132.86 97.83Q133.31 97.57 133.9 97.57Q134.21 97.57 134.47 97.62L134.82 97.68L134.85 96.3L134.67 96.22Q134.39 96.09 133.94 96.09Q133.11 96.09 132.48 96.45Q132.43 96.48 132.39 96.51Q132.37 96.51 132.36 96.52Q132.1 96.69 131.89 96.92L131.88 96.25L130.38 96.25L130.38 105.09L131.9 105.09L131.9 99.17Q132.13 98.39 132.63 97.98Q132.74 97.9 132.86 97.83ZM131.6 99.13C131.77 98.52 132.05 98.06 132.44 97.75C132.84 97.43 133.33 97.27 133.9 97.27C134.01 97.27 134.12 97.27 134.23 97.28C134.33 97.29 134.43 97.31 134.53 97.32L134.53 97.02L134.55 96.49C134.4 96.43 134.2 96.39 133.94 96.39C133.06 96.39 132.38 96.72 131.89 97.37C131.78 97.52 131.68 97.68 131.6 97.86L131.59 97.28L131.58 96.55L130.68 96.55L130.68 104.79L131.6 104.79L131.6 99.13ZM163.4 104.79Q163.97 104.49 164.41 103.94L164.41 103.94Q165.35 102.74 165.35 100.74L165.35 100.62Q165.35 98.56 164.42 97.38Q164.03 96.89 163.54 96.6Q162.8 96.16 161.8 96.16Q160.67 96.16 159.86 96.67Q159.63 96.82 159.42 97L159.39 96.31L157.93 96.31L157.93 108.12L159.47 108.12L159.47 104.42Q159.56 104.5 159.66 104.56Q160.54 105.16 161.83 105.16Q162.71 105.16 163.4 104.79ZM159.17 104.15L159.17 103.69C159.26 103.81 159.36 103.92 159.47 104.02C160.06 104.58 160.84 104.86 161.83 104.86C162.81 104.86 163.59 104.49 164.17 103.75C164.76 103.01 165.05 102.01 165.05 100.74L165.05 100.62Q165.05 98.66 164.18 97.56C163.61 96.83 162.81 96.46 161.8 96.46C160.81 96.46 160.03 96.78 159.44 97.41C159.33 97.51 159.24 97.63 159.15 97.76L159.13 97.3L159.1 96.61L158.23 96.61L158.23 107.82L159.17 107.82L159.17 104.15ZM177.56 97.91Q178.04 97.62 178.68 97.62Q178.99 97.62 179.27 97.67L179.61 97.73L179.65 96.37L179.46 96.28Q179.18 96.16 178.72 96.16Q177.83 96.16 177.17 96.55Q177.16 96.56 177.15 96.57Q177.1 96.59 177.06 96.62Q176.82 96.78 176.63 96.98L176.62 96.31L175.11 96.31L175.11 105.01L176.64 105.01L176.64 99.19Q176.87 98.43 177.38 98.03Q177.47 97.96 177.56 97.91ZM176.34 99.15C176.51 98.56 176.8 98.1 177.2 97.8Q177.32 97.7 177.46 97.62Q177.99 97.32 178.68 97.32C178.8 97.32 178.91 97.33 179.02 97.34C179.12 97.35 179.22 97.36 179.32 97.38L179.33 97.07L179.34 96.56C179.19 96.5 178.98 96.46 178.72 96.46C177.82 96.46 177.13 96.79 176.63 97.43C176.52 97.57 176.43 97.73 176.34 97.9L176.33 97.34L176.32 96.61L175.41 96.61L175.41 104.71L176.34 104.71L176.34 99.15ZM167.56 104.05Q167.89 104.37 168.3 104.61L168.3 104.61Q168.57 104.77 168.86 104.88Q169.58 105.16 170.41 105.16Q171.72 105.16 172.65 104.57Q173.22 104.2 173.65 103.61L173.82 103.36L172.76 102.59L172.58 102.81Q172.16 103.34 171.64 103.57Q171.13 103.8 170.45 103.8Q169.85 103.8 169.37 103.58Q168.94 103.37 168.59 102.99Q168.39 102.77 168.24 102.51Q167.87 101.87 167.85 101.02L173.88 101.02L173.88 100.22Q173.88 98.51 173.05 97.46Q172.98 97.36 172.9 97.27Q172.58 96.91 172.18 96.67Q171.37 96.16 170.24 96.16Q169.74 96.16 169.29 96.29Q168.74 96.43 168.24 96.75Q167.94 96.94 167.69 97.17Q167.16 97.66 166.81 98.33Q166.79 98.37 166.78 98.41Q166.31 99.38 166.31 100.57L166.31 100.89Q166.31 101.91 166.68 102.76Q166.75 102.92 166.83 103.08Q167.13 103.63 167.56 104.05ZM167.55 101.02C167.57 101.88 167.84 102.61 168.37 103.19C168.92 103.8 169.61 104.1 170.45 104.1C170.95 104.1 171.39 104.02 171.77 103.84Q172.35 103.58 172.82 103L173.4 103.43L173.39 103.45C173.33 103.53 173.28 103.6 173.22 103.67C172.54 104.46 171.6 104.86 170.41 104.86Q169.62 104.86 168.94 104.59Q168.69 104.49 168.45 104.35C167.87 104.01 167.42 103.54 167.1 102.94C166.77 102.33 166.61 101.65 166.61 100.89L166.61 100.57Q166.61 99.42 167.07 98.49Q167.08 98.48 167.08 98.47C167.4 97.85 167.84 97.36 168.4 97C168.97 96.64 169.58 96.46 170.24 96.46C171.26 96.46 172.08 96.8 172.68 97.47C173.28 98.14 173.58 99.06 173.58 100.22L173.58 100.72L167.54 100.72L167.54 100.89C167.54 100.94 167.54 100.98 167.55 101.02ZM157.09 96.31L155.24 96.31L153.11 99.37L150.98 96.31L149.14 96.31L152.22 100.59L149.02 105.01L150.87 105.01L153.12 101.8L155.37 105.01L157.22 105.01L154 100.59L157.09 96.31ZM153.64 100.59L156.29 96.91L156.51 96.61L155.39 96.61L153.29 99.64L153.11 99.9L152.93 99.64L150.83 96.61L149.72 96.61L149.94 96.91L152.59 100.59L149.82 104.41L149.61 104.71L150.71 104.71L152.94 101.54L153.12 101.28L153.3 101.54L155.53 104.71L156.63 104.71L156.41 104.41L153.64 100.59ZM109.44 98.41Q108.98 99.36 108.98 100.55L108.98 100.73C108.98 102 109.33 103.02 110.01 103.79C110.71 104.56 111.6 104.94 112.7 104.94Q113.57 104.94 114.28 104.61L114.28 104.61Q114.46 104.53 114.63 104.42C115.2 104.08 115.63 103.59 115.94 102.95C116.25 102.31 116.41 101.59 116.41 100.8L116.41 100.61C116.41 99.34 116.07 98.32 115.38 97.55C114.69 96.78 113.8 96.39 112.69 96.39Q111.92 96.39 111.26 96.67L111.26 96.67L111.26 96.67Q111 96.78 110.76 96.93C110.2 97.28 109.76 97.77 109.44 98.41ZM121.81 98.41Q121.35 99.36 121.35 100.55L121.35 100.73Q121.35 102.4 122.14 103.5Q122.25 103.65 122.38 103.79Q122.8 104.25 123.31 104.53Q124.08 104.94 125.07 104.94C125.79 104.94 126.43 104.77 127 104.42C127.56 104.08 128 103.59 128.31 102.95Q128.77 101.99 128.77 100.8L128.77 100.61Q128.77 98.93 127.97 97.84L127.97 97.84L127.97 97.84Q127.87 97.69 127.74 97.55C127.06 96.78 126.16 96.39 125.05 96.39C124.34 96.39 123.69 96.57 123.12 96.93C122.56 97.28 122.12 97.77 121.81 98.41ZM64.7 97.02Q65.15 96.82 65.69 96.82Q66.33 96.82 66.83 97.09L66.83 97.09Q67.15 97.27 67.42 97.57C67.82 98.02 68.05 98.6 68.1 99.3C68.11 99.37 68.11 99.43 68.11 99.5L68.11 99.6L63.03 99.6C63.04 99.5 63.06 99.4 63.08 99.3C63.21 98.59 63.49 98.02 63.91 97.57Q64.26 97.21 64.7 97.02L64.7 97.02ZM63.38 99.3Q63.57 98.36 64.13 97.78L64.13 97.78Q64.44 97.46 64.81 97.3Q65.22 97.12 65.69 97.12Q66.27 97.12 66.7 97.36Q66.97 97.52 67.19 97.77Q67.25 97.83 67.3 97.9Q67.73 98.47 67.8 99.3L63.38 99.3ZM80.35 102.88C79.83 102.24 79.56 101.43 79.56 100.45L79.56 100.28Q79.56 98.83 80.26 97.9L80.26 97.9Q80.31 97.84 80.36 97.78Q80.74 97.31 81.24 97.07L81.24 97.07L81.24 97.07Q81.76 96.82 82.4 96.82C82.96 96.82 83.45 96.97 83.89 97.25C84.32 97.54 84.66 97.94 84.9 98.47C85.14 98.99 85.26 99.57 85.26 100.2L85.26 100.37Q85.26 101.84 84.55 102.77L84.55 102.78L84.55 102.78Q84.51 102.83 84.47 102.88C83.95 103.51 83.26 103.82 82.42 103.82Q81.71 103.82 81.16 103.54Q80.7 103.3 80.35 102.88ZM80.58 102.69Q80.58 102.69 80.58 102.68Q80.51 102.6 80.45 102.51Q79.86 101.68 79.86 100.45L79.86 100.28Q79.86 98.89 80.54 98.03Q80.56 98 80.59 97.97Q80.93 97.56 81.37 97.34Q81.83 97.12 82.4 97.12Q82.94 97.12 83.39 97.32Q83.56 97.4 83.72 97.51Q83.8 97.56 83.87 97.61Q84.34 97.98 84.63 98.59Q84.96 99.32 84.96 100.2L84.96 100.37Q84.96 101.78 84.27 102.64Q84.25 102.67 84.24 102.69Q83.93 103.06 83.53 103.27Q83.04 103.52 82.42 103.52Q81.78 103.52 81.29 103.26Q80.89 103.06 80.58 102.69ZM110.52 103.02Q109.91 102.12 109.91 100.8L109.91 100.63C109.91 99.6 110.16 98.77 110.68 98.13C111.2 97.49 111.87 97.17 112.69 97.17Q113.25 97.17 113.73 97.37L113.73 97.37Q113.95 97.47 114.15 97.61Q114.24 97.66 114.32 97.73Q114.84 98.14 115.14 98.82C115.38 99.34 115.5 99.92 115.5 100.55L115.5 100.72C115.5 101.76 115.24 102.59 114.72 103.23C114.21 103.86 113.54 104.17 112.7 104.17Q112.04 104.17 111.5 103.9L111.5 103.9Q111.04 103.67 110.67 103.23Q110.59 103.13 110.52 103.02ZM123.04 103.23C122.53 102.59 122.27 101.78 122.27 100.8L122.27 100.63C122.27 99.6 122.53 98.77 123.05 98.13C123.56 97.49 124.23 97.17 125.05 97.17C125.6 97.17 126.09 97.32 126.51 97.61C126.94 97.89 127.27 98.29 127.51 98.82Q127.86 99.6 127.86 100.55L127.86 100.72C127.86 101.76 127.6 102.59 127.08 103.23C126.57 103.86 125.9 104.17 125.07 104.17C124.23 104.17 123.56 103.86 123.04 103.23ZM169.21 97.43Q169.68 97.23 170.24 97.23C170.94 97.23 171.52 97.47 171.96 97.96Q172.06 98.07 172.14 98.2Q172.57 98.8 172.64 99.66Q172.65 99.76 172.65 99.86L172.65 99.96L167.58 99.96C167.59 99.86 167.6 99.76 167.62 99.66C167.75 98.96 168.03 98.4 168.45 97.97Q168.79 97.62 169.21 97.43L169.21 97.43L169.21 97.43ZM172.34 99.66Q172.27 98.87 171.86 98.32Q171.8 98.24 171.73 98.16Q171.52 97.93 171.27 97.78Q170.82 97.53 170.24 97.53Q169.74 97.53 169.33 97.71Q168.97 97.87 168.67 98.18L168.67 98.18Q168.66 98.19 168.65 98.2Q168.11 98.76 167.93 99.66L172.34 99.66ZM163.44 98.14C163.89 98.74 164.11 99.55 164.11 100.59C164.11 101.73 163.89 102.6 163.44 103.21C163.01 103.8 162.39 104.1 161.61 104.1Q160.75 104.1 160.13 103.74C159.71 103.49 159.39 103.14 159.17 102.67L159.17 98.79Q159.44 98.16 159.91 97.78L159.91 97.78Q160.01 97.71 160.11 97.64Q160.12 97.63 160.12 97.63Q160.14 97.62 160.16 97.61Q160.76 97.24 161.59 97.24C162.38 97.24 163 97.54 163.44 98.14ZM159.47 98.85L159.47 102.6Q159.67 103 159.98 103.27Q160.12 103.39 160.28 103.48Q160.84 103.8 161.61 103.8Q162.21 103.8 162.65 103.54Q162.97 103.35 163.2 103.03Q163.81 102.2 163.81 100.59Q163.81 99.14 163.2 98.32Q162.97 98 162.65 97.81Q162.2 97.54 161.59 97.54Q160.82 97.54 160.27 97.89Q160.2 97.94 160.14 97.99Q159.72 98.31 159.47 98.85ZM110.91 103.04Q110.91 103.04 110.91 103.04Q110.85 102.97 110.81 102.9Q110.21 102.07 110.21 100.8L110.21 100.63Q110.21 99.2 110.9 98.34Q110.91 98.33 110.92 98.32Q111.26 97.89 111.71 97.68Q112.15 97.47 112.69 97.47Q113.2 97.47 113.62 97.66Q113.81 97.74 113.98 97.85Q114.04 97.89 114.09 97.93Q114.58 98.3 114.87 98.94Q115.2 99.67 115.2 100.55L115.2 100.72Q115.2 102.17 114.49 103.04L114.49 103.04Q114.17 103.43 113.76 103.63Q113.29 103.87 112.7 103.87Q112.11 103.87 111.63 103.63Q111.22 103.42 110.91 103.04ZM123.27 103.04Q123.27 103.04 123.27 103.04Q123.22 102.97 123.17 102.9Q122.57 102.07 122.57 100.8L122.57 100.63Q122.57 99.2 123.27 98.34Q123.27 98.33 123.28 98.32Q123.63 97.89 124.08 97.68Q124.52 97.47 125.05 97.47Q125.56 97.47 125.99 97.66Q126.18 97.74 126.35 97.85Q126.4 97.89 126.46 97.93Q126.95 98.3 127.23 98.94Q127.56 99.67 127.56 100.55L127.56 100.72Q127.56 102.17 126.85 103.04L126.85 103.04Q126.53 103.43 126.13 103.63Q125.66 103.87 125.07 103.87Q124.47 103.87 124 103.63Q123.59 103.42 123.27 103.04Z" fill="#FFFFFF" fill-opacity="1.000000" fill-rule="evenodd"/>
	</g>
</svg>
